<svg width="48" height="48" viewBox="0 0 48 48" fill="none" xmlns="http://www.w3.org/2000/svg">
<rect x="0.26087" y="0.26087" width="47.1234" height="47.4783" rx="23.5617" fill="white"/>
<rect x="0.26087" y="0.26087" width="47.1234" height="47.4783" rx="23.5617" stroke="#C4CFE3" stroke-width="0.521739"/>
<path d="M11.8098 34.4348H16.2356V23.6865L9.91309 18.9446V32.538C9.91309 33.5875 10.7635 34.4348 11.8098 34.4348Z" fill="#4285F4"/>
<path d="M31.4097 34.4348H35.8354C36.885 34.4348 37.7322 33.5844 37.7322 32.538V18.9446L31.4097 23.6865" fill="#34A853"/>
<path d="M31.4097 15.4673V23.6866L37.7322 18.9447V16.4157C37.7322 14.07 35.0546 12.7328 33.18 14.1396" fill="#FBBC04"/>
<path d="M16.2358 23.6866V15.4673L23.8229 21.1576L31.4099 15.4673V23.6866L23.8229 29.3768" fill="#EA4335"/>
<path d="M9.91309 16.4157V18.9447L16.2356 23.6866V15.4673L14.4653 14.1396C12.5875 12.7328 9.91309 14.07 9.91309 16.4157Z" fill="#C5221F"/>
</svg>
