<svg width="32" height="32" viewBox="0 0 32 32" fill="none" xmlns="http://www.w3.org/2000/svg">
<path fill-rule="evenodd" clip-rule="evenodd" d="M18.608 3.96646C18.3303 3.96646 18.1047 3.7408 18.1047 3.46307V0.998193H13.8953V3.46307C13.8953 3.7408 13.6696 3.96646 13.3919 3.96646C13.1141 3.96646 12.8885 3.7408 12.8885 3.46307V0.503481C12.8885 0.225749 13.1141 9.15527e-05 13.3919 9.15527e-05H18.5994C18.8771 9.15527e-05 19.1028 0.225749 19.1028 0.503481V3.46307C19.1028 3.7408 18.8771 3.96646 18.608 3.96646Z" fill="white"/>
<path fill-rule="evenodd" clip-rule="evenodd" d="M18.6082 32H13.4007C13.1229 32 12.8973 31.7743 12.8973 31.4966V28.537C12.8973 28.2593 13.1229 28.0336 13.4007 28.0336C13.6784 28.0336 13.9041 28.2593 13.9041 28.537V31.0019H18.1134V28.537C18.1134 28.2593 18.3391 28.0336 18.6168 28.0336C18.8946 28.0336 19.1202 28.2593 19.1202 28.537V31.4966C19.1029 31.7743 18.8772 32 18.6082 32Z" fill="white"/>
<path fill-rule="evenodd" clip-rule="evenodd" d="M5.29423 9.47759C5.16404 9.47759 5.04253 9.42552 4.93838 9.33005L2.83803 7.2297C2.64709 7.03875 2.64709 6.71763 2.83803 6.52669L6.51799 2.84673C6.70893 2.65579 7.03006 2.65579 7.221 2.84673L9.32135 4.94708C9.51229 5.13802 9.51229 5.45915 9.32135 5.65009C9.13041 5.84103 8.80928 5.84103 8.61834 5.65009L6.87383 3.90558L3.89689 6.88253L5.64139 8.62704C5.83233 8.81798 5.83233 9.13911 5.64139 9.33005C5.5546 9.42552 5.42441 9.47759 5.29423 9.47759Z" fill="white"/>
<path fill-rule="evenodd" clip-rule="evenodd" d="M25.1175 29.3008C24.9873 29.3008 24.8571 29.2488 24.7616 29.1533L22.6613 27.0529C22.4703 26.862 22.4703 26.5409 22.6613 26.3499C22.8522 26.159 23.1733 26.159 23.3643 26.3499L25.1088 28.0944L28.0857 25.1175L26.3412 23.373C26.1503 23.182 26.1503 22.8609 26.3412 22.67C26.5322 22.479 26.8533 22.479 27.0442 22.67L29.1446 24.7703C29.2401 24.8658 29.2921 24.9873 29.2921 25.1262C29.2921 25.265 29.2401 25.3865 29.1446 25.482L25.4646 29.162C25.3778 29.2488 25.2477 29.3008 25.1175 29.3008Z" fill="white"/>
<path fill-rule="evenodd" clip-rule="evenodd" d="M3.46298 19.1028H0.50339C0.225657 19.1028 0 18.8772 0 18.5995V13.392C0 13.1142 0.225657 12.8886 0.50339 12.8886H3.46298C3.74071 12.8886 3.96637 13.1142 3.96637 13.392C3.96637 13.6697 3.74071 13.8954 3.46298 13.8954H1.00678V18.1047H3.47166C3.74939 18.1047 3.97505 18.3304 3.97505 18.6081C3.97505 18.8859 3.74071 19.1028 3.46298 19.1028Z" fill="white"/>
<path fill-rule="evenodd" clip-rule="evenodd" d="M31.4965 19.1029H28.5369C28.2592 19.1029 28.0335 18.8773 28.0335 18.5995C28.0335 18.3218 28.2592 18.0961 28.5369 18.0961H31.0018V13.8868H28.5369C28.2592 13.8868 28.0335 13.6611 28.0335 13.3834C28.0335 13.1056 28.2592 12.88 28.5369 12.88H31.4965C31.7742 12.88 31.9999 13.1056 31.9999 13.3834V18.5909C31.9999 18.8773 31.7742 19.1029 31.4965 19.1029Z" fill="white"/>
<path fill-rule="evenodd" clip-rule="evenodd" d="M3.46298 19.1028H0.50339C0.225657 19.1028 0 18.8772 0 18.5995V13.392C0 13.1142 0.225657 12.8886 0.50339 12.8886H3.46298C3.74071 12.8886 3.96637 13.1142 3.96637 13.392C3.96637 13.6697 3.74071 13.8954 3.46298 13.8954H1.00678V18.1047H3.47166C3.74939 18.1047 3.97505 18.3304 3.97505 18.6081C3.97505 18.8859 3.74071 19.1028 3.46298 19.1028Z" fill="white"/>
<path fill-rule="evenodd" clip-rule="evenodd" d="M31.4965 19.1029H28.5369C28.2592 19.1029 28.0335 18.8773 28.0335 18.5995C28.0335 18.3218 28.2592 18.0961 28.5369 18.0961H31.0018V13.8868H28.5369C28.2592 13.8868 28.0335 13.6611 28.0335 13.3834C28.0335 13.1056 28.2592 12.88 28.5369 12.88H31.4965C31.7742 12.88 31.9999 13.1056 31.9999 13.3834V18.5909C31.9999 18.8773 31.7742 19.1029 31.4965 19.1029Z" fill="white"/>
<path fill-rule="evenodd" clip-rule="evenodd" d="M6.88262 29.3008C6.75243 29.3008 6.62225 29.2488 6.52678 29.1533L2.84682 25.4733C2.65588 25.2824 2.65588 24.9613 2.84682 24.7703L4.94717 22.67C5.13811 22.479 5.45924 22.479 5.65018 22.67C5.84112 22.8609 5.84112 23.182 5.65018 23.373L3.90567 25.1175L6.88262 28.0944L8.62713 26.3499C8.81807 26.159 9.1392 26.159 9.33014 26.3499C9.52108 26.5409 9.52108 26.862 9.33014 27.0529L7.22979 29.1533C7.14299 29.2488 7.01281 29.3008 6.88262 29.3008Z" fill="white"/>
<path fill-rule="evenodd" clip-rule="evenodd" d="M26.7057 9.47759C26.5755 9.47759 26.454 9.42552 26.3498 9.33005C26.1589 9.13911 26.1589 8.81798 26.3498 8.62704L28.0943 6.88253L25.1174 3.90558L23.3729 5.65009C23.1819 5.84103 22.8608 5.84103 22.6699 5.65009C22.4789 5.45915 22.4789 5.13802 22.6699 4.94708L24.7702 2.84673C24.9612 2.65579 25.2823 2.65579 25.4732 2.84673L29.1532 6.52669C29.2487 6.62216 29.3007 6.74366 29.3007 6.88253C29.3007 7.0214 29.2487 7.1429 29.1532 7.23837L27.0528 9.33873C26.9574 9.42552 26.8359 9.47759 26.7057 9.47759Z" fill="white"/>
<path fill-rule="evenodd" clip-rule="evenodd" d="M23.0258 5.79763C22.9303 5.79763 22.8349 5.77159 22.7481 5.71952C21.4462 4.86896 20.0228 4.2701 18.504 3.95765C18.2349 3.90557 18.0613 3.63652 18.1134 3.36747C18.1655 3.09841 18.4345 2.92483 18.7036 2.97691C20.3439 3.31539 21.8888 3.95765 23.2949 4.87764C23.5292 5.02518 23.5899 5.33763 23.4337 5.57197C23.3469 5.71951 23.182 5.79763 23.0258 5.79763Z" fill="white"/>
<path fill-rule="evenodd" clip-rule="evenodd" d="M3.46292 13.8954C3.4282 13.8954 3.39349 13.8954 3.35877 13.8867C3.08972 13.8346 2.91613 13.5656 2.96821 13.2965C3.30669 11.6562 3.94895 10.1113 4.86894 8.70526C5.01649 8.47092 5.32893 8.41017 5.56327 8.56639C5.79761 8.71394 5.85836 9.02639 5.70214 9.26072C4.85158 10.5626 4.25272 11.986 3.94027 13.5048C3.90556 13.7305 3.69726 13.8954 3.46292 13.8954Z" fill="white"/>
<path fill-rule="evenodd" clip-rule="evenodd" d="M28.537 13.8954C28.3027 13.8954 28.0944 13.7305 28.051 13.4962C27.7385 11.9773 27.1483 10.5539 26.2891 9.25205C26.1416 9.01772 26.2023 8.71395 26.428 8.55772C26.6623 8.41018 26.9661 8.47093 27.1223 8.69659C28.0423 10.1026 28.6845 11.6475 29.023 13.2879C29.0751 13.5569 28.9015 13.826 28.6325 13.878C28.6064 13.8954 28.5717 13.8954 28.537 13.8954Z" fill="white"/>
<path fill-rule="evenodd" clip-rule="evenodd" d="M18.608 29.0318C18.3737 29.0318 18.1654 28.8669 18.122 28.6326C18.0699 28.3635 18.2435 28.0945 18.5126 28.0424C20.0314 27.7299 21.4548 27.1398 22.7567 26.2805C22.991 26.133 23.2948 26.1937 23.451 26.4194C23.5986 26.6537 23.5378 26.9575 23.3121 27.1137C21.9061 28.0337 20.3612 28.676 18.7209 29.0145C18.6688 29.0318 18.6341 29.0318 18.608 29.0318Z" fill="white"/>
<path fill-rule="evenodd" clip-rule="evenodd" d="M5.29433 23.5206C5.12942 23.5206 4.9732 23.4425 4.87773 23.2949C3.95774 21.8889 3.31548 20.344 2.977 18.7037C2.92492 18.4346 3.09851 18.1655 3.36756 18.1135C3.63661 18.0614 3.90567 18.235 3.95774 18.504C4.27019 20.0229 4.86037 21.4463 5.71961 22.7481C5.86715 22.9825 5.8064 23.2862 5.58074 23.4425C5.48527 23.4945 5.3898 23.5206 5.29433 23.5206Z" fill="white"/>
<path fill-rule="evenodd" clip-rule="evenodd" d="M13.4006 29.0318C13.3659 29.0318 13.3312 29.0318 13.2964 29.0232C11.6561 28.6847 10.1112 28.0424 8.70517 27.1224C8.47083 26.9749 8.41008 26.6624 8.5663 26.4281C8.71385 26.1938 9.0263 26.133 9.26063 26.2892C10.5625 27.1398 11.9859 27.7387 13.5047 28.0511C13.7738 28.1032 13.9474 28.3722 13.8953 28.6413C13.8345 28.8669 13.6262 29.0318 13.4006 29.0318Z" fill="white"/>
<path fill-rule="evenodd" clip-rule="evenodd" d="M26.7057 23.5206C26.6103 23.5206 26.5148 23.4945 26.428 23.4425C26.1937 23.2949 26.1329 22.9825 26.2891 22.7481C27.1397 21.4463 27.7386 20.0229 28.051 18.504C28.1031 18.235 28.3721 18.0614 28.6412 18.1135C28.9102 18.1655 29.0838 18.4346 29.0318 18.7037C28.6933 20.344 28.051 21.8889 27.131 23.2949C27.0269 23.4425 26.8706 23.5206 26.7057 23.5206Z" fill="white"/>
<path fill-rule="evenodd" clip-rule="evenodd" d="M8.98305 5.79763C8.81814 5.79763 8.66192 5.71951 8.56645 5.57197C8.4189 5.33763 8.47966 5.03386 8.70532 4.87764C10.1113 3.95765 11.6562 3.31539 13.2966 2.97691C13.5656 2.92483 13.8347 3.09841 13.8868 3.36747C13.9388 3.63652 13.7653 3.90557 13.4962 3.95765C11.9774 4.2701 10.554 4.86028 9.2521 5.71952C9.17399 5.77159 9.07852 5.79763 8.98305 5.79763Z" fill="white"/>
<path fill-rule="evenodd" clip-rule="evenodd" d="M16.0044 25.9074C14.6678 25.9074 13.3659 25.647 12.1508 25.1263C10.9705 24.6229 9.9116 23.9112 9.00029 22.9999C8.08898 22.0886 7.37729 21.0297 6.8739 19.8494C6.35315 18.6256 6.09277 17.3324 6.09277 15.9958C6.09277 14.6592 6.35315 13.3574 6.8739 12.1423C7.37729 10.9619 8.08898 9.90305 9.00029 8.99174C9.9116 8.08043 10.9705 7.36874 12.1508 6.86535C13.3746 6.3446 14.6678 6.08423 16.0044 6.08423C17.3409 6.08423 18.6428 6.3446 19.8579 6.86535C21.0383 7.36874 22.0971 8.08043 23.0084 8.99174C23.9197 9.90305 24.6314 10.9619 25.1348 12.1423C25.6556 13.366 25.9159 14.6592 25.9159 15.9958C25.9159 17.3324 25.6556 18.6343 25.1348 19.8494C24.6314 21.0297 23.9197 22.0886 23.0084 22.9999C22.0971 23.9112 21.0383 24.6229 19.8579 25.1263C18.6341 25.647 17.3409 25.9074 16.0044 25.9074ZM16.0044 7.09101C11.092 7.09101 7.09955 11.0834 7.09955 15.9958C7.09955 20.9082 11.092 24.9006 16.0044 24.9006C20.9168 24.9006 24.9092 20.9082 24.9092 15.9958C24.9092 11.0834 20.9168 7.09101 16.0044 7.09101Z" fill="white"/>
<path fill-rule="evenodd" clip-rule="evenodd" d="M17.8703 25.725C17.5926 25.725 17.3669 25.4994 17.3669 25.2216V19.9621C17.3669 19.7625 17.4797 19.5889 17.662 19.5108C19.0767 18.8598 19.9967 17.4365 19.9967 15.8829C19.9967 14.607 19.3805 13.4093 18.3737 12.6716V15.5444C18.3737 15.7267 18.2782 15.8916 18.122 15.9784L16.256 17.0285C16.0998 17.1153 15.9175 17.1153 15.77 17.0285L13.9039 15.9784C13.7477 15.8916 13.6522 15.7267 13.6522 15.5444V12.6716C12.6455 13.418 12.0292 14.607 12.0292 15.8829C12.0292 17.4365 12.9406 18.8685 14.3639 19.5108C14.5375 19.5889 14.659 19.7711 14.659 19.9621V25.2216C14.659 25.4994 14.4334 25.725 14.1556 25.725C13.8779 25.725 13.6522 25.4994 13.6522 25.2216V20.2745C12.9232 19.884 12.2983 19.3111 11.8383 18.6081C11.3089 17.7923 11.0225 16.8549 11.0225 15.8742C11.0225 14.9021 11.3002 13.9561 11.8383 13.1403C12.359 12.3505 13.0794 11.7256 13.9387 11.335C14.0949 11.2656 14.2771 11.2743 14.416 11.3697C14.5549 11.4652 14.6417 11.6214 14.6417 11.7863V15.2406L16.0043 16.0044L17.3669 15.2406V11.7863C17.3669 11.6127 17.4537 11.4565 17.5926 11.3697C17.7314 11.2743 17.9137 11.2656 18.0699 11.335C18.9292 11.7256 19.6582 12.3505 20.1703 13.1403C20.6997 13.9561 20.9861 14.8935 20.9861 15.8742C20.9861 16.8463 20.7084 17.7923 20.1703 18.6081C19.7103 19.3111 19.0941 19.8753 18.3563 20.2745V25.2216C18.365 25.4994 18.1394 25.725 17.8703 25.725Z" fill="white"/>
</svg>
