<svg width="48" height="48" viewBox="0 0 48 48" fill="none" xmlns="http://www.w3.org/2000/svg">
<rect width="48" height="48" rx="24" fill="#34AADF"/>
<path d="M13.3537 23.1496C13.3537 23.1496 23.1191 19.0366 26.506 17.5883C27.8043 17.009 32.2072 15.1551 32.2072 15.1551C32.2072 15.1551 34.2393 14.3442 34.07 16.3138C34.0135 17.1248 33.5619 19.9634 33.1104 23.0337C32.433 27.3786 31.6992 32.1289 31.6992 32.1289C31.6992 32.1289 31.5863 33.4613 30.6267 33.693C29.6671 33.9247 28.0865 32.882 27.8043 32.6502C27.5784 32.4765 23.5707 29.8696 22.1031 28.5951C21.7079 28.2475 21.2564 27.5524 22.1595 26.7413C24.1916 24.8296 26.6189 22.4545 28.0865 20.9483C28.7639 20.2531 29.4412 18.631 26.6188 20.6006C22.6111 23.4393 18.6598 26.1041 18.6598 26.1041C18.6598 26.1041 17.7566 26.6834 16.0632 26.162C14.3697 25.6407 12.394 24.9455 12.394 24.9455C12.394 24.9455 11.0394 24.0765 13.3537 23.1496Z" fill="white"/>
</svg>
