<svg width="48" height="48" viewBox="0 0 48 48" fill="none" xmlns="http://www.w3.org/2000/svg">
<rect width="48" height="48" rx="24" fill="#00D95F"/>
<path d="M12 35.1114L13.7219 28.7088C12.3332 26.2147 11.892 23.3042 12.4793 20.5115C13.0665 17.7189 14.6429 15.2312 16.919 13.5052C19.1951 11.7792 22.0184 10.9305 24.8708 11.1149C27.7231 11.2993 30.4131 12.5044 32.4473 14.5091C34.4815 16.5137 35.7233 19.1835 35.9449 22.0285C36.1665 24.8735 35.353 27.7028 33.6537 29.9973C31.9544 32.2918 29.4832 33.8976 26.6937 34.52C23.9042 35.1424 20.9835 34.7396 18.4675 33.3856L12 35.1114ZM18.7793 30.9897L19.1793 31.2265C21.0017 32.3049 23.1303 32.7512 25.2333 32.4958C27.3362 32.2404 29.2955 31.2976 30.8058 29.8144C32.3161 28.3312 33.2925 26.391 33.5828 24.2959C33.8732 22.2009 33.4613 20.0688 32.4112 18.232C31.3611 16.3951 29.7318 14.9566 27.7774 14.1406C25.8229 13.3247 23.6529 13.1771 21.6056 13.721C19.5584 14.2648 17.7488 15.4694 16.4589 17.1472C15.169 18.825 14.4713 20.8816 14.4744 22.9966C14.4727 24.7502 14.9585 26.47 15.8778 27.9643L16.1286 28.3772L15.1659 31.9507L18.7793 30.9897Z" fill="white"/>
<path fill-rule="evenodd" clip-rule="evenodd" d="M28.487 24.6404C28.2525 24.4516 27.978 24.3187 27.6842 24.2519C27.3905 24.185 27.0854 24.186 26.7921 24.2547C26.3515 24.4374 26.0668 25.1277 25.782 25.4729C25.722 25.5557 25.6338 25.6137 25.5339 25.6361C25.4341 25.6586 25.3294 25.6438 25.2397 25.5947C23.6264 24.9639 22.2742 23.8071 21.4026 22.3122C21.3283 22.2189 21.2931 22.1005 21.3044 21.9818C21.3158 21.8632 21.3729 21.7535 21.4636 21.676C21.7812 21.3622 22.0143 20.9734 22.1415 20.5458C22.1698 20.074 22.0615 19.6041 21.8297 19.1921C21.6505 18.6145 21.3094 18.1002 20.8467 17.7099C20.6081 17.6028 20.3435 17.5669 20.0848 17.6065C19.8262 17.6461 19.5846 17.7596 19.3891 17.9333C19.0498 18.2256 18.7805 18.5901 18.601 19.0001C18.4215 19.41 18.3363 19.855 18.3519 20.3021C18.353 20.5532 18.3848 20.8032 18.4468 21.0466C18.6042 21.6313 18.8463 22.1899 19.1654 22.7048C19.3956 23.0992 19.6468 23.481 19.9179 23.8486C20.7989 25.056 21.9064 26.0811 23.1788 26.8671C23.8173 27.2666 24.4997 27.5913 25.2126 27.835C25.9531 28.1701 26.7707 28.2987 27.5785 28.2072C28.0388 28.1377 28.4749 27.9562 28.8485 27.6789C29.2221 27.4015 29.5216 27.0368 29.7208 26.6167C29.8378 26.363 29.8734 26.0793 29.8225 25.8046C29.7005 25.2428 28.948 24.9112 28.487 24.6404Z" fill="white"/>
</svg>
